<?xml version="1.0" encoding="UTF-8" standalone="no"?>
<!-- Created with Inkscape (http://www.inkscape.org/) -->

<svg
   xmlns:dc="http://purl.org/dc/elements/1.1/"
   xmlns:cc="http://creativecommons.org/ns#"
   xmlns:rdf="http://www.w3.org/1999/02/22-rdf-syntax-ns#"
   xmlns:svg="http://www.w3.org/2000/svg"
   xmlns="http://www.w3.org/2000/svg"
   xmlns:sodipodi="http://sodipodi.sourceforge.net/DTD/sodipodi-0.dtd"
   xmlns:inkscape="http://www.inkscape.org/namespaces/inkscape"
   width="600"
   height="600"
   id="svg2817"
   version="1.1"
   inkscape:version="0.47 r22583"
   sodipodi:docname="Blue question mark.svg">
  <defs
     id="defs2819">
    <inkscape:perspective
       sodipodi:type="inkscape:persp3d"
       inkscape:vp_x="0 : 300 : 1"
       inkscape:vp_y="0 : 1000 : 0"
       inkscape:vp_z="600 : 300 : 1"
       inkscape:persp3d-origin="300 : 200 : 1"
       id="perspective15" />
  </defs>
  <sodipodi:namedview
     id="base"
     pagecolor="#ffffff"
     bordercolor="#666666"
     borderopacity="1.0"
     inkscape:pageopacity="0.0"
     inkscape:pageshadow="2"
     inkscape:zoom="0.35"
     inkscape:cx="29.285714"
     inkscape:cy="487.14286"
     inkscape:document-units="px"
     inkscape:current-layer="layer1"
     showgrid="false"
     inkscape:window-width="905"
     inkscape:window-height="718"
     inkscape:window-x="293"
     inkscape:window-y="53"
     inkscape:window-maximized="0" />
  <metadata
     id="metadata2822">
    <rdf:RDF>
      <cc:Work
         rdf:about="">
        <dc:format>image/svg+xml</dc:format>
        <dc:type
           rdf:resource="http://purl.org/dc/dcmitype/StillImage" />
        <dc:title />
      </cc:Work>
    </rdf:RDF>
  </metadata>
  <g
     inkscape:label="Layer 1"
     inkscape:groupmode="layer"
     id="layer1"
     transform="translate(0,-452.36218)">
    <g
       style="font-size:144px;font-style:normal;font-weight:normal;fill:#000000;fill-opacity:1;stroke:none;font-family:Bitstream Vera Sans"
       id="text2839">
      <path
         d="m 496.93119,575.22998 c -1.79104,-77.01484 -62.68666,-123.58209 -171.04477,-123.58209 -68.05963,0 -139.70151,13.43286 -177.31342,29.55225 -11.64178,48.35816 -22.38807,97.61198 -32.23881,143.28357 27.76118,4.47762 58.20898,8.05971 89.55223,10.74627 l 29.55224,-74.32836 c 2.68657,-4.4776 3.58212,-6.26865 8.05971,-8.95521 12.53731,-8.05971 26.86568,-10.74627 41.19402,-10.74627 33.13431,0 49.25373,25.07466 49.25373,54.62686 0,69.85066 -55.52247,103.88065 -154.02984,166.56716 -0.89553,8.05969 -0.89553,16.1194 -0.89553,24.1791 0,29.55221 8.05973,63.5821 14.32836,78.80597 42.98503,-1.79104 77.91048,-9.85076 98.50746,-17.01492 1.79105,-22.38805 4.47764,-42.08957 8.0597,-54.62687 0.89553,-8.0597 6.26868,-13.43284 16.1194,-17.91045 C 462.0057,710.45392 498.72224,649.55827 496.93119,575.22998 M 222.90135,918.21502 c -42.0895,0 -81.49254,31.34333 -81.49254,74.32838 0,34.9252 25.07468,59.1045 63.58209,59.1045 47.46265,0 81.49254,-25.9703 81.49254,-66.2687 0,-36.71635 -20.59706,-67.16418 -63.58209,-67.16418"
         style="font-size:600px;font-style:italic;font-variant:normal;font-weight:bold;font-stretch:normal;fill:#0000ff;font-family:Chaparral Pro;-inkscape-font-specification:Chaparral Pro Bold Italic"
         id="path2844" />
    </g>
  </g>
</svg>
